<svg width="32" height="32" viewBox="0 0 32 32" fill="none" xmlns="http://www.w3.org/2000/svg">
<path d="M6.39241 9.4077C6.39241 7.74237 7.74308 6.3917 9.40708 6.3917H10.7791C11.5737 6.3917 12.3377 6.07704 12.9031 5.5157L13.8617 4.5557C15.0364 3.3757 16.9457 3.37037 18.1257 4.54504L18.1377 4.5557L19.0977 5.5157C19.6617 6.07704 20.4257 6.3917 21.2217 6.3917H22.5924C24.2577 6.3917 25.6084 7.74237 25.6084 9.4077V10.777C25.6084 11.5744 25.9231 12.337 26.4844 12.9024L27.4444 13.8624C28.6244 15.037 28.6311 16.945 27.4564 18.1264L27.4444 18.1384L26.4844 19.0984C25.9231 19.661 25.6084 20.4264 25.6084 21.221V22.593C25.6084 24.2584 24.2577 25.6077 22.5924 25.6077H21.2217C20.4257 25.6077 19.6617 25.9237 19.0977 26.485L18.1377 27.4437C16.9644 28.625 15.0551 28.6304 13.8737 27.4557C13.8697 27.4517 13.8657 27.4477 13.8617 27.4437L12.9031 26.485C12.3377 25.9237 11.5737 25.6077 10.7791 25.6077H9.40708C7.74308 25.6077 6.39241 24.2584 6.39241 22.593V21.221C6.39241 20.4264 6.07641 19.661 5.51508 19.0984L4.55641 18.1384C3.37508 16.9637 3.36975 15.0544 4.54441 13.8744L4.55641 13.8624L5.51508 12.9024C6.07641 12.337 6.39241 11.5744 6.39241 10.777V9.4077" stroke="#FB770D" stroke-width="2" stroke-linecap="round" stroke-linejoin="round"/>
<path d="M12.5733 19.426L19.4267 12.5726" stroke="#FB770D" stroke-width="2" stroke-linecap="round" stroke-linejoin="round"/>
<path d="M19.4223 20.4298C19.1556 20.4298 18.9023 20.3231 18.7156 20.1364C18.6223 20.0431 18.5556 19.9231 18.5023 19.8031C18.4489 19.6831 18.4223 19.5644 18.4223 19.4298C18.4223 19.2964 18.4489 19.1631 18.5023 19.0431C18.5556 18.9231 18.6223 18.8164 18.7156 18.7231C19.0889 18.3498 19.7556 18.3498 20.1289 18.7231C20.2223 18.8164 20.3023 18.9231 20.3556 19.0431C20.3956 19.1631 20.4223 19.2964 20.4223 19.4298C20.4223 19.5644 20.3956 19.6831 20.3556 19.8031C20.3023 19.9231 20.2223 20.0431 20.1289 20.1364C19.9423 20.3231 19.6889 20.4298 19.4223 20.4298" fill="#FB770D"/>
<path d="M12.5688 13.5769C12.4355 13.5769 12.3155 13.5489 12.1955 13.4956C12.0755 13.4422 11.9555 13.3769 11.8622 13.2836C11.7688 13.1769 11.7022 13.0702 11.6488 12.9502C11.5955 12.8289 11.5688 12.7102 11.5688 12.5769C11.5688 12.4422 11.5955 12.3102 11.6488 12.1902C11.7022 12.0702 11.7688 11.9502 11.8622 11.8702C12.2488 11.4956 12.9022 11.4956 13.2755 11.8702C13.4622 12.0556 13.5688 12.3102 13.5688 12.5769C13.5688 12.7102 13.5555 12.8289 13.5022 12.9502C13.4488 13.0702 13.3688 13.1769 13.2755 13.2836C13.1822 13.3769 13.0755 13.4422 12.9555 13.4956C12.8355 13.5489 12.7022 13.5769 12.5688 13.5769" fill="#FB770D"/>
</svg>
