<?xml version="1.0" encoding="utf-8"?>
<!-- Generator: Adobe Illustrator 24.0.1, SVG Export Plug-In . SVG Version: 6.00 Build 0)  -->
<svg version="1.1" id="Capa_1" xmlns="http://www.w3.org/2000/svg" xmlns:xlink="http://www.w3.org/1999/xlink" x="0px" y="0px"
	 viewBox="0 0 512 512" style="enable-background:new 0 0 512 512;" xml:space="preserve">
<style type="text/css">
	.st0{fill:#FFFFFF;}
</style>
<g>
	<path class="st0" d="M456.7,0H385c-8.3,0-15,6.7-15,15s6.7,15,15,15h71.7c14,0,25.3,11.4,25.3,25.3V127c0,8.3,6.7,15,15,15
		s15-6.7,15-15V55.3C512,24.8,487.2,0,456.7,0z"/>
	<path class="st0" d="M15,142c8.3,0,15-6.7,15-15V55.3C30,41.4,41.4,30,55.3,30H127c8.3,0,15-6.7,15-15s-6.7-15-15-15H55.3
		C24.8,0,0,24.8,0,55.3V127C0,135.3,6.7,142,15,142z"/>
	<path class="st0" d="M127,482H55.3c-14,0-25.3-11.4-25.3-25.3V385c0-8.3-6.7-15-15-15s-15,6.7-15,15v71.7
		C0,487.2,24.8,512,55.3,512H127c8.3,0,15-6.7,15-15S135.3,482,127,482z"/>
	<path class="st0" d="M497,370c-8.3,0-15,6.7-15,15v71.7c0,14-11.4,25.3-25.3,25.3H385c-8.3,0-15,6.7-15,15s6.7,15,15,15h71.7
		c30.5,0,55.3-24.8,55.3-55.3V385C512,376.7,505.3,370,497,370z"/>
	<path class="st0" d="M447,432V272c0-8.3-6.7-15-15-15H272c-8.3,0-15,6.7-15,15v160c0,8.3,6.7,15,15,15h160
		C440.3,447,447,440.3,447,432z M417,417H287V287h130V417z"/>
	<path class="st0" d="M312,223h112c8.3,0,15-6.7,15-15V96c0-8.3-6.7-15-15-15H312c-8.3,0-15,6.7-15,15v112
		C297,216.3,303.7,223,312,223z M327,111h82v82h-82V111z"/>
	<path class="st0" d="M224,65H80c-8.3,0-15,6.7-15,15v144c0,8.3,6.7,15,15,15h144c8.3,0,15-6.7,15-15V80C239,71.7,232.3,65,224,65z
		 M209,209H95V95h114V209z"/>
	<path class="st0" d="M208,417H95V288c0-8.3-6.7-15-15-15s-15,6.7-15,15v144c0,8.3,6.7,15,15,15h128c8.3,0,15-6.7,15-15
		S216.3,417,208,417z"/>
	<path class="st0" d="M159,368v-80c0-8.3-6.7-15-15-15s-15,6.7-15,15v80c0,8.3,6.7,15,15,15S159,376.3,159,368z"/>
	<path class="st0" d="M208,273c-8.3,0-15,6.7-15,15v80c0,8.3,6.7,15,15,15s15-6.7,15-15v-80C223,279.7,216.3,273,208,273z"/>
	<path class="st0" d="M336,367h32c8.3,0,15-6.7,15-15s-6.7-15-15-15h-32c-8.3,0-15,6.7-15,15S327.7,367,336,367z"/>
	<path class="st0" d="M152,175c8.3,0,15-6.7,15-15v-16c0-8.3-6.7-15-15-15s-15,6.7-15,15v16C137,168.3,143.7,175,152,175z"/>
</g>
</svg>
