<svg width="32" height="32" viewBox="0 0 32 32" fill="none" xmlns="http://www.w3.org/2000/svg">
<path fill-rule="evenodd" clip-rule="evenodd" d="M23.8097 27.2224C26.3097 27.2224 28.3337 25.1971 28.3337 22.6984V19.0984C26.6804 19.0984 25.3471 17.7651 25.3471 16.1131C25.3471 14.4598 26.6804 13.1278 28.3337 13.1278L28.3311 9.52376C28.3311 7.02509 26.3071 4.99976 23.8084 4.99976H8.1924C5.69374 4.99976 3.6684 7.02509 3.6684 9.52376L3.66707 13.2438C5.31907 13.2438 6.6524 14.4598 6.6524 16.1131C6.6524 17.7651 5.31907 19.0984 3.66707 19.0984V22.6984C3.66707 25.1971 5.69107 27.2224 8.18973 27.2224H23.8097Z" stroke="#FB770D" stroke-width="1.5" stroke-linecap="round" stroke-linejoin="round"/>
<path fill-rule="evenodd" clip-rule="evenodd" d="M15.9997 18.4724L18.3197 19.6924C18.5371 19.8057 18.7917 19.6217 18.7504 19.3804L18.3064 16.795L20.1851 14.967C20.3611 14.795 20.2637 14.4977 20.0211 14.4617L17.4264 14.0844L16.2651 11.7324C16.1571 11.5124 15.8437 11.5124 15.7344 11.7324L14.5731 14.0844L11.9797 14.4617C11.7371 14.4977 11.6397 14.795 11.8157 14.967L13.6931 16.795L13.2491 19.3804C13.2077 19.6217 13.4624 19.8057 13.6797 19.6924L15.9997 18.4724Z" stroke="#FB770D" stroke-width="1.5" stroke-linecap="round" stroke-linejoin="round"/>
</svg>
