<svg width="34" height="34" viewBox="0 0 34 34" fill="none" xmlns="http://www.w3.org/2000/svg">
<path fill-rule="evenodd" clip-rule="evenodd" d="M22.4539 3.54258C23.3478 3.54258 24.2403 3.66867 25.0889 3.95342C30.3178 5.65342 32.2019 11.3909 30.628 16.4059C29.7355 18.9687 28.2764 21.3076 26.3653 23.2187C23.6297 25.8678 20.6278 28.2195 17.3964 30.2453L17.0422 30.4593L16.6739 30.2312C13.4311 28.2195 10.4122 25.8678 7.65111 23.2045C5.75278 21.2934 4.2922 18.9687 3.38553 16.4059C1.7847 11.3909 3.66886 5.65342 8.95445 3.92367C9.36528 3.782 9.78886 3.68283 10.2139 3.62758H10.3839C10.7819 3.5695 11.1772 3.54258 11.5739 3.54258H11.7297C12.6222 3.5695 13.4864 3.72533 14.3236 4.01008H14.4072C14.4639 4.037 14.5064 4.06675 14.5347 4.09367C14.8478 4.19425 15.1439 4.30758 15.4272 4.46342L15.9655 4.70425C16.0956 4.77363 16.2416 4.87963 16.3678 4.97125C16.4478 5.0293 16.5198 5.08157 16.5747 5.11508C16.5978 5.12873 16.6213 5.14244 16.645 5.15627C16.7665 5.22718 16.893 5.30104 16.9997 5.38283C18.5736 4.18008 20.4847 3.52842 22.4539 3.54258ZM26.2222 13.7426C26.803 13.727 27.2989 13.2609 27.3414 12.6645V12.4959C27.3839 10.5112 26.1811 8.71342 24.3522 8.01925C23.7714 7.8195 23.1339 8.13258 22.9214 8.72758C22.723 9.32258 23.0347 9.97425 23.6297 10.1853C24.5378 10.5253 25.1455 11.4192 25.1455 12.4095V12.4534C25.1186 12.7778 25.2164 13.0909 25.4147 13.3317C25.613 13.5726 25.9105 13.7128 26.2222 13.7426Z" fill="#FB770D"/>
</svg>
